<svg id="Capa_1" enable-background="new 0 0 512 512" viewBox="0 0 512 512" xmlns="http://www.w3.org/2000/svg"><g><path d="m512 346.541v-327.147l-19.394-19.394h-473.212l-19.394 19.394v428.212l19.394 19.394h25.606v45h60v-45.001h302v45.001h60v-45.001h25.607l19.393-19.394v-86.063h-15v29.999h-414.5v15h414.5v34.852l-10.606 10.606h-460.788l-10.606-10.606v-34.852h52.5v-15h-52.5v-316.083h399.384v-15h-399.384v-34.852l10.606-10.606h460.787l10.607 10.606v34.852h-67.615v15h67.615v271.083zm-422 150.459h-30v-30.001h30zm361.999 0h-30v-30.001h30z"/><path d="m444.499 215.999v-90h-15.114v-10.606l-19.394-19.394h-323.098l-19.393 19.394v35.064h15v-28.852l10.606-10.606h310.672l10.606 10.606v4.394h-15.114v90h15.115v35.001h-15.115v90h15.115v4.394l-10.607 10.606h-310.672l-10.606-10.606v-89.279h30.229v-45.229h-30.229v-45.427h-15v60.427h30.229v15.229h-30.229v110.492l19.393 19.393h323.098l19.394-19.394v-10.606h15.114v-90h-15.114v-35.001zm-15 110.001h-15.229v-60h15.229zm-15.229-185.001h15.229v60h-15.229z"/><path d="m358.5 233.5c0-56.52-45.981-102.501-102.5-102.501s-102.5 45.981-102.5 102.501c0 56.519 45.981 102.5 102.5 102.5s102.5-45.981 102.5-102.5zm-190 0c0-48.248 39.252-87.501 87.5-87.501s87.5 39.253 87.5 87.501-39.252 87.5-87.5 87.5-87.5-39.252-87.5-87.5z"/><path d="m263.5 293.5v-15.638c6.826-1.151 13.131-3.842 18.551-7.705l11.072 11.073 10.606-10.607-11.072-11.072c3.863-5.42 6.555-11.724 7.705-18.55h15.638v-15h-15.637c-1.151-6.826-3.842-13.131-7.705-18.551l11.072-11.072-10.606-10.607-11.072 11.073c-5.42-3.863-11.725-6.554-18.551-7.705v-15.638h-15v15.638c-6.826 1.151-13.131 3.842-18.551 7.705l-11.072-11.073-10.606 10.607 11.072 11.072c-3.863 5.42-6.555 11.725-7.705 18.551h-15.639v15h15.637c1.151 6.826 3.842 13.13 7.705 18.55l-11.072 11.072 10.606 10.607 11.072-11.073c5.42 3.863 11.725 6.554 18.551 7.705v15.638zm-37.5-60c0-16.542 13.458-30 30-30s30 13.458 30 30c0 16.541-13.458 29.999-30 29.999s-30-13.458-30-29.999z"/><path d="m278.5 30.459h15v15h-15z"/><path d="m218.5 30.459h15v15h-15z"/><path d="m248.5 30.459h15v15h-15z"/><path d="m30 361.541h15v15h-15z"/><path d="m30 421.54h15v15h-15z"/><path d="m30 331.541h15v15h-15z"/><path d="m467 90.458h15v15h-15z"/><path d="m467 120.458h15v74.999h-15z"/></g></svg>