<svg  viewBox="-20 -40 661.33331 661"  xmlns="http://www.w3.org/2000/svg"><path d="m10 248.832031h55.476562c3.28125 11.832031 8.007813 23.214844 14.085938 33.882813l-39.265625 39.25c-1.875 1.875-2.929687 4.417968-2.929687 7.074218s1.054687 5.199219 2.929687 7.074219l42.421875 42.433594c3.90625 3.898437 10.234375 3.898437 14.140625 0l39.269531-39.273437c10.667969 6.074218 22.039063 10.804687 33.871094 14.082031v55.476562c0 5.523438 4.476562 10 10 10h60c5.523438 0 10-4.476562 10-10v-55.476562c11.832031-3.277344 23.203125-8.007813 33.871094-14.082031l39.269531 39.273437c3.96875 3.75 10.175781 3.75 14.140625 0l42.429688-42.433594c1.875-1.875 2.929687-4.417969 2.929687-7.074219s-1.054687-5.199218-2.929687-7.074218l-39.273438-39.25c6.078125-10.667969 10.804688-22.050782 14.085938-33.882813h55.476562c5.523438 0 10-4.476562 10-10v-60c0-5.519531-4.476562-10-10-10h-55.476562c-3.28125-11.828125-8.007813-23.210937-14.085938-33.878906l39.265625-39.25c1.875-1.875 2.929687-4.417969 2.929687-7.074219s-1.054687-5.199218-2.929687-7.074218l-42.421875-42.433594c-3.90625-3.902344-10.234375-3.902344-14.140625 0l-39.269531 39.273437c-10.667969-6.070312-22.042969-10.800781-33.871094-14.082031v-55.480469c0-5.519531-4.476562-10-10-10h-60c-5.523438 0-10 4.480469-10 10v55.480469c-11.828125 3.28125-23.203125 8.011719-33.871094 14.082031l-39.269531-39.273437c-3.96875-3.75-10.175781-3.75-14.140625 0l-42.429688 42.433594c-1.875 1.875-2.929687 4.417968-2.929687 7.074218s1.054687 5.199219 2.929687 7.074219l39.273438 39.25c-6.078125 10.667969-10.804688 22.050781-14.085938 33.878906h-55.476562c-5.523438 0-10 4.480469-10 10v60c0 5.523438 4.476562 10 10 10zm10-60h53.300781c4.699219 0 8.765625-3.269531 9.769531-7.859375 3.28125-14.976562 9.214844-29.25 17.519532-42.140625 2.535156-3.953125 1.972656-9.144531-1.351563-12.46875l-37.738281-37.738281 28.289062-28.292969 37.730469 37.738281c3.324219 3.332032 8.519531 3.894532 12.480469 1.355469 12.894531-8.300781 27.164062-14.234375 42.140625-17.519531 4.585937-1.007812 7.859375-5.074219 7.859375-9.773438v-53.300781h40v53.300781c0 4.699219 3.273438 8.765626 7.859375 9.773438 14.976563 3.285156 29.246094 9.21875 42.140625 17.519531 3.960938 2.539063 9.15625 1.976563 12.480469-1.355469l37.730469-37.738281 28.28125 28.292969-37.730469 37.726562c-3.332031 3.328126-3.890625 8.523438-1.351563 12.480469 8.304688 12.898438 14.230469 27.167969 17.507813 42.148438 1.007812 4.589843 5.074219 7.863281 9.769531 7.863281h53.3125v40h-53.3125c-4.695312 0-8.761719 3.269531-9.769531 7.859375-3.277344 14.976563-9.207031 29.246094-17.507813 42.128906-2.535156 3.957031-1.972656 9.148438 1.351563 12.472657l37.738281 37.730468-28.289062 28.300782-37.730469-37.742188c-3.324219-3.328125-8.519531-3.890625-12.480469-1.351562-12.886719 8.304687-27.152344 14.238281-42.128906 17.519531-4.59375 1-7.871094 5.070312-7.871094 9.769531v53.300781h-40v-53.300781c0-4.699219-3.277344-8.769531-7.871094-9.769531-14.976562-3.28125-29.242187-9.214844-42.128906-17.519531-3.960938-2.539063-9.15625-1.976563-12.480469 1.351562l-37.730469 37.742188-28.28125-28.292969 37.730469-37.730469c3.332031-3.324219 3.890625-8.519531 1.351563-12.480469-8.304688-12.894531-14.238282-27.167969-17.519532-42.148437-1.007812-4.589844-5.070312-7.851563-9.769531-7.851563h-53.300781zm0 0"/><path d="m210 288.832031c44.183594 0 80-35.8125 80-80 0-44.183593-35.816406-80-80-80s-80 35.816407-80 80c.046875 44.160157 35.839844 79.953125 80 80zm0-140c33.132812 0 60 26.867188 60 60 0 33.136719-26.867188 60-60 60s-60-26.863281-60-60c.035156-33.125 26.875-59.964843 60-60zm0 0"/><path d="m210 318.832031c60.75 0 110-49.246093 110-110 0-60.75-49.25-110-110-110s-110 49.25-110 110c.074219 60.722657 49.277344 109.929688 110 110zm0-200c49.707031 0 90 40.292969 90 90s-40.292969 90-90 90-90-40.292969-90-90c.054688-49.679687 40.316406-89.945312 90-90zm0 0"/><path d="m570 458.832031v-80c0-5.519531-4.476562-10-10-10h-20v-80c0-5.519531-4.476562-10-10-10h-90c-5.523438 0-10 4.480469-10 10v80h-50c-5.523438 0-10 4.480469-10 10v80h-320c-27.601562.035157-49.9648438 22.398438-50 50v20c.0351562 27.605469 22.398438 49.96875 50 50h520c27.601562-.03125 49.964844-22.394531 50-50v-20c-.035156-27.601562-22.398438-49.964843-50-50zm-20 0h-70v-70h70zm-100-160h70v70h-70zm-60 90h70v70h-70zm210 140c0 16.570313-13.433594 30-30 30h-520c-16.566406 0-30-13.429687-30-30v-20c0-16.566406 13.433594-30 30-30h520c16.566406 0 30 13.433594 30 30zm0 0"/><path d="m310 488.832031c-16.566406 0-30 13.433594-30 30 0 16.570313 13.433594 30 30 30s30-13.429687 30-30c0-16.566406-13.433594-30-30-30zm0 40c-5.523438 0-10-4.476562-10-10 0-5.519531 4.476562-10 10-10s10 4.480469 10 10c0 5.523438-4.476562 10-10 10zm0 0"/><path d="m210 488.832031c-16.566406 0-30 13.433594-30 30 0 16.570313 13.433594 30 30 30s30-13.429687 30-30c0-16.566406-13.433594-30-30-30zm0 40c-5.523438 0-10-4.476562-10-10 0-5.519531 4.476562-10 10-10s10 4.480469 10 10c0 5.523438-4.476562 10-10 10zm0 0"/><path d="m410 488.832031c-16.566406 0-30 13.433594-30 30 0 16.570313 13.433594 30 30 30s30-13.429687 30-30c0-16.566406-13.433594-30-30-30zm0 40c-5.523438 0-10-4.476562-10-10 0-5.519531 4.476562-10 10-10s10 4.480469 10 10c0 5.523438-4.476562 10-10 10zm0 0"/><path d="m110 488.832031c-16.566406 0-30 13.433594-30 30 0 16.570313 13.433594 30 30 30s30-13.429687 30-30c0-16.566406-13.433594-30-30-30zm0 40c-5.523438 0-10-4.476562-10-10 0-5.519531 4.476562-10 10-10s10 4.480469 10 10c0 5.523438-4.476562 10-10 10zm0 0"/><path d="m510 488.832031c-16.566406 0-30 13.433594-30 30 0 16.570313 13.433594 30 30 30s30-13.429687 30-30c0-16.566406-13.433594-30-30-30zm0 40c-5.523438 0-10-4.476562-10-10 0-5.519531 4.476562-10 10-10s10 4.480469 10 10c0 5.523438-4.476562 10-10 10zm0 0"/></svg>